<?xml version="1.0" encoding="utf-8"?>
<!-- Generator: Adobe Illustrator 20.0.0, SVG Export Plug-In . SVG Version: 6.00 Build 0)  -->
<svg version="1.1" id="图层_1" xmlns="http://www.w3.org/2000/svg" xmlns:xlink="http://www.w3.org/1999/xlink" x="0px" y="0px"
	 viewBox="0 0 20 20" style="enable-background:new 0 0 20 20;" xml:space="preserve">
<style type="text/css">
	.st0{fill:#FFFFFF;}
	.st1{display:none;fill:#FFFFFF;}
</style>
<g id="icon_video_stop" transform="translate(71.000000, 55.000000)">
	<path id="Rectangle-268" class="st0" d="M-70.5-53.0000572h2c0.2761459,0,0.5,0.2238579,0.5,0.5v15
		c0,0.2761421-0.2238541,0.5-0.5,0.5h-2c-0.2761459,0-0.5-0.2238579-0.5-0.5v-15
		C-71-52.7761993-70.7761459-53.0000572-70.5-53.0000572z"/>
	<path id="Rectangle-268-Copy" class="st0" d="M-63.5-53.0000572h2c0.2761421,0,0.5,0.2238579,0.5,0.5v15
		c0,0.2761421-0.2238579,0.5-0.5,0.5h-2c-0.2761421,0-0.5-0.2238579-0.5-0.5v-15
		C-64-52.7761993-63.7761421-53.0000572-63.5-53.0000572z"/>
</g>
<rect y="-0.0000586" class="st1" width="19.9573326" height="19.9573326"/>
</svg>
