<?xml version="1.0" encoding="utf-8"?>
<!-- Generator: Adobe Illustrator 20.0.0, SVG Export Plug-In . SVG Version: 6.00 Build 0)  -->
<svg version="1.1" xmlns="http://www.w3.org/2000/svg" xmlns:xlink="http://www.w3.org/1999/xlink" x="0px" y="0px"
	 viewBox="0 0 20 20" style="enable-background:new 0 0 20 20;" xml:space="preserve">
<style type="text/css">
	.st0{display:none;}
	.st1{display:inline;fill:#A41BDD;}
	.st2{fill:#FFFFFF;}
</style>
<g id="图层_2" class="st0">
	<rect x="0.0030025" y="-0.0116667" class="st1" width="20" height="20"/>
</g>
<g id="图层_3">
	<path class="st2" d="M1.0008789,8.3898039h-1V1.9989625c0-1.1030273,0.8969727-2,1.9999999-2h6.4077077v1H2.0008788
		c-0.5512694,0-0.9999999,0.4487305-0.9999999,1V8.3898039z"/>
	<path class="st2" d="M5.3215685,19.9998188h-3.320996c-1.1030272,0-1.9999999-0.8974609-1.9999999-2v-3.4998484h1v3.4998484
		c0,0.5517578,0.4487305,1,0.9999999,1h3.320996V19.9998188z"/>
	<path class="st2" d="M17.997139,20.0027294h-6.187335v-1h6.187335c0.5517578,0,1-0.4482422,1-1v-6.1972389h1v6.1972389
		C19.997139,19.1052685,19.099678,20.0027294,17.997139,20.0027294z"/>
	<path class="st2" d="M19.9996662,5.5081248h-1V2.0047071c0-0.5512697-0.4482422-1.0000001-1-1.0000001h-3.3108644V0.004707
		h3.3108644c1.1025391,0,2,0.8969727,2,2V5.5081248z"/>
	<path class="st2" d="M8.5005741,0.9992096H8.001379v-1h0.5020618c0.2750034,0,0.4979382,0.2229343,0.4979382,0.4979377v0.001258
		C9.001379,0.7749919,8.7771606,0.9992096,8.5005741,0.9992096z"/>
	<path class="st2" d="M5.5005131,20.000618H5.0013175v-1h0.5020623c0.2750034,0,0.4979377,0.2229347,0.4979377,0.4979382v0.0012589
		C6.0013175,19.7764015,5.7770996,20.000618,5.5005131,20.000618z"/>
	<path class="st2" d="M11.4942789,19.000618h0.4991951v1h-0.5020618c-0.2750034,0-0.4979382-0.2229328-0.4979382-0.4979362
		v-0.0012589C10.993474,19.2248363,11.2176924,19.000618,11.4942789,19.000618z"/>
	<path class="st2" d="M0.0008578,8.5036135V8.0044174h1v0.5020628c0,0.2750034-0.2229343,0.4979372-0.4979377,0.4979372h-0.001258
		C0.2250755,9.0044174,0.0008578,8.7802,0.0008578,8.5036135z"/>
	<path class="st2" d="M18.9999847,5.5059576V5.0067616h1v0.5020623c0,0.2750034-0.2229347,0.4979377-0.4979382,0.4979377h-0.0012569
		C19.2242031,6.0067616,18.9999847,5.7825441,18.9999847,5.5059576z"/>
	<path class="st2" d="M19.9999847,11.495801v0.4991961h-1v-0.5020628c0-0.2750034,0.2229347-0.4979372,0.4979382-0.4979372
		h0.0012569C19.7757664,10.994997,19.9999847,11.2192144,19.9999847,11.495801z"/>
	<path class="st2" d="M1.0008578,14.4993401v0.4991951h-1v-0.5020618c0-0.2750034,0.2229343-0.4979382,0.4979377-0.4979382
		h0.0012581C0.7766402,13.9985352,1.0008578,14.2227535,1.0008578,14.4993401z"/>
	<path class="st2" d="M14.9990196,0.9989339h-0.4995365c-0.2763987,0-0.5004635-0.2240651-0.5004635-0.5004634V0.4976279
		c0-0.2754211,0.2232733-0.4986941,0.4986944-0.4986941h0.5013056V0.9989339z"/>
</g>
</svg>
